<?xml version="1.0" standalone="no"?><!-- Generator: Gravit.io --><svg xmlns="http://www.w3.org/2000/svg" xmlns:xlink="http://www.w3.org/1999/xlink" style="isolation:isolate" viewBox="0 0 390 510" width="390" height="510"><path d=" M 196 160.146 L 146 100.171 L 161 70.184 L 231 70.184 L 246 100.171 L 196 160.146 Z  M 182 96.423 L 210 96.423 L 200.625 77.68 L 191.375 77.68 L 182 96.423 Z  M 192.25 144.028 L 192.25 103.92 L 158.875 103.92 L 192.25 144.028 Z  M 199.75 144.028 L 233.125 103.92 L 199.75 103.92 L 199.75 144.028 Z  M 218.375 96.423 L 235.375 96.423 L 226 77.68 L 209 77.68 L 218.375 96.423 Z  M 156.625 96.423 L 173.625 96.423 L 183 77.68 L 166 77.68 L 156.625 96.423 Z " fill="rgb(63,81,181)"/><g id="Group"><path d=" M 195 505.002 C 183.433 505.023 172.904 498.335 168.01 487.859 L 166.65 485.01 L 20 485.01 C 11.73 485.01 5 478.283 5 470.017 L 5 415.04 L 385 415.04 L 385 470.017 C 385 478.283 378.27 485.01 370 485.01 L 223.35 485.01 L 221.99 487.859 C 217.096 498.335 206.567 505.023 195 505.002 Z " fill="rgb(139,183,240)"/><path d=" M 380 420.038 L 380 470.017 C 380 475.524 375.51 480.013 370 480.013 L 220.2 480.013 L 217.48 485.7 C 213.26 494.526 204.65 500.004 195 500.004 C 185.35 500.004 176.74 494.526 172.52 485.7 L 169.8 480.013 L 20 480.013 C 14.49 480.013 10 475.524 10 470.017 L 10 420.038 L 380 420.038 Z  M 390 410.042 L 0 410.042 L 0 470.017 C 0 481.058 8.954 490.008 20 490.008 L 163.5 490.008 C 169.13 501.793 181.06 510 195 510 C 208.94 510 220.87 501.793 226.5 490.008 L 370 490.008 C 381.046 490.008 390 481.058 390 470.017 L 390 410.042 Z " fill="rgb(63,81,181)"/><path d=" M 194.5 485.01 C 192.11 473.382 181.876 465.032 170 465.019 L 5 465.019 L 5 165.144 L 160 165.144 C 179.3 165.144 195 180.837 195 200.129 L 195 485.01 L 194.5 485.01 Z " fill="rgb(255,255,255)"/><path d=" M 160 170.142 C 176.54 170.142 190 183.596 190 200.129 L 190 467.678 C 184.509 462.742 177.384 460.014 170 460.021 L 10 460.021 L 10 170.142 L 160 170.142 Z  M 160 160.146 L 0 160.146 L 0 470.017 L 170 470.017 C 181.046 470.017 190 478.967 190 490.008 L 200 490.008 L 200 200.129 C 200 178.047 182.091 160.146 160 160.146 Z " fill="rgb(120,139,156)"/><path d=" M 195 485.01 L 195 200.129 C 195 180.837 210.7 165.144 230 165.144 L 385 165.144 L 385 465.019 L 220 465.019 C 207.92 465.019 197.83 473.615 195.5 485.01 L 195 485.01 Z " fill="rgb(225,235,242)"/><path d=" M 380 170.142 L 380 460.021 L 220 460.021 C 212.32 460.021 205.31 462.92 200 467.678 L 200 200.129 C 200 183.596 213.46 170.142 230 170.142 L 380 170.142 Z  M 390 160.146 L 230 160.146 C 207.909 160.146 190 178.047 190 200.129 L 190 490.008 L 200 490.008 C 200 478.967 208.954 470.017 220 470.017 L 390 470.017 L 390 160.146 Z " fill="rgb(120,139,156)"/><path d=" M 326.21 170.142 L 326.21 369.998 L 301.41 353.475 L 295.86 349.777 L 290.31 353.475 L 265.51 369.998 L 265.51 170.142 L 326.21 170.142 Z  M 336.21 160.146 L 255.52 160.146 L 255.52 388.671 L 295.86 361.782 L 336.2 388.671 L 336.2 160.146 L 336.21 160.146 Z " fill="rgb(63,81,181)"/><path d=" M 260.52 165.144 L 331.21 165.144 L 331.21 379.335 L 295.86 355.774 L 260.52 379.335 L 260.52 165.144 Z " fill="rgb(63,81,181)"/></g><path d=" M 279.509 26.477 L 242.565 59.401 C 238.484 63.038 234.746 65.602 234.215 65.13 L 230.853 62.133 C 230.322 61.66 233.2 58.328 237.281 54.692 L 274.225 21.768 C 278.305 18.131 282.044 15.567 282.574 16.039 L 285.937 19.036 C 286.468 19.509 283.59 22.841 279.509 26.477 Z " fill="rgb(63,81,181)"/><path d=" M 199.737 9.312 L 199.737 55.873 C 199.737 61.016 199.128 65.186 198.378 65.186 L 193.622 65.186 C 192.872 65.186 192.263 61.016 192.263 55.873 L 192.263 9.312 C 192.263 4.169 192.872 0 193.622 0 L 198.378 0 C 199.128 0 199.737 4.169 199.737 9.312 Z " fill="rgb(63,81,181)"/><path d=" M 149.435 59.401 L 112.491 26.477 C 108.41 22.841 105.532 19.509 106.063 19.036 L 109.426 16.039 C 109.956 15.567 113.695 18.131 117.775 21.768 L 154.719 54.692 C 158.8 58.328 161.678 61.66 161.147 62.133 L 157.785 65.13 C 157.254 65.602 153.516 63.038 149.435 59.401 Z " fill="rgb(63,81,181)"/></svg>