<svg xmlns="http://www.w3.org/2000/svg" xmlns:xlink="http://www.w3.org/1999/xlink" viewBox="0 0 1024 1024" width="1024" height="1024">
  <defs>
    <filter id="shadow">
      <feDropShadow dx="2" dy="5" stdDeviation="6"/>
    </filter>
  </defs>
<g id="Group1">
<path d=" M 919.088 734.362 L 919.088 429.967 L 505.901 651.945 L 7 379.418 L 505.901 106.89 L 1007 379.418 L 1007 734.362 L 919.088 734.362 Z  M 505.901 909.088 L 179.527 732.165 L 179.527 515.681 L 505.901 694.802 L 833.374 515.681 L 833.374 732.165 L 505.901 909.088 Z " fill="rgb(63,81,181)" style="filter:url(#shadow);"/>
</g>
<g id="Group2">
<path d=" M 236.747 894.912 Q 236.747 886.921 231.087 879.262 Q 225.426 871.604 218.601 862.781 Q 211.775 853.957 206.447 844.801 Q 201.12 835.644 201.12 824.656 Q 201.12 804.012 215.438 789.695 Q 229.755 775.377 250.066 775.377 Q 270.71 775.377 285.027 789.695 Q 299.345 804.012 299.345 824.656 Q 299.345 835.311 293.851 844.634 Q 288.357 853.957 281.532 862.447 Q 274.705 870.939 269.378 879.097 Q 264.051 887.253 264.051 894.912 L 236.747 894.912 Z " fill="rgb(63,140,181)"/>
<path d=" M 236.082 927.875 L 236.082 909.896 L 264.717 909.896 L 264.717 927.875 L 236.082 927.875 Z " fill="rgb(63,140,181)"/>
<path d=" M 351.953 897.909 L 330.644 876.599 Q 341.632 863.613 348.458 846.466 Q 355.283 829.318 355.283 808.674 Q 355.283 790.361 348.625 772.546 Q 341.965 754.733 327.647 739.749 L 349.956 717.774 Q 366.271 734.755 375.927 757.897 Q 385.583 781.038 385.583 808.674 Q 385.583 834.978 376.76 857.287 Q 367.936 879.596 351.953 897.909 Z " fill="rgb(63,140,181)" fill-opacity="0.5"/>
<path d=" M 148.511 897.909 Q 132.529 879.596 123.705 856.953 Q 114.882 834.312 114.882 808.674 Q 114.882 755.066 151.341 715.942 Q 187.801 676.818 242.74 673.822 Q 245.738 673.822 248.901 673.989 Q 252.064 674.155 254.061 674.488 L 227.757 648.183 L 243.739 631.868 L 304.339 692.468 L 243.739 753.401 L 227.757 737.418 L 259.389 705.787 Q 255.061 705.121 250.566 704.788 Q 246.07 704.455 243.407 704.455 Q 201.12 706.786 173.317 737.418 Q 145.514 768.052 145.514 808.674 Q 145.514 824.656 150.842 843.136 Q 156.169 861.616 170.153 876.266 L 148.511 897.909 Z " fill="rgb(63,140,181)" fill-opacity="0.5"/>
</g>
</svg>