<svg xmlns="http://www.w3.org/2000/svg" xmlns:xlink="http://www.w3.org/1999/xlink" viewBox="15 15 1024 843.28" width="102.4" height="84.3">
<g id="Group1">
<path d=" M 948.978 657.531 L 948.978 345.83 L 525.875 573.136 L 15 294.068 L 525.875 15 L 1039 294.068 L 1039 657.531 L 948.978 657.531 Z  M 525.875 836.45 L 191.668 655.281 L 191.668 433.602 L 525.875 617.022 L 861.207 433.602 L 861.207 655.281 L 525.875 836.45 Z " fill="rgb(63,81,181)"/>
</g>
<g id="Group2">
<path d=" M 247.932 824.86 Q 247.932 816.758 242.193 808.993 Q 236.454 801.229 229.534 792.283 Q 222.613 783.337 217.212 774.054 Q 211.811 764.77 211.811 753.63 Q 211.811 732.7 226.327 718.184 Q 240.843 703.668 261.435 703.668 Q 282.365 703.668 296.881 718.184 Q 311.397 732.7 311.397 753.63 Q 311.397 764.433 305.827 773.885 Q 300.257 783.337 293.337 791.945 Q 286.416 800.554 281.015 808.825 Q 275.614 817.095 275.614 824.86 L 247.932 824.86 Z " fill="rgb(63,140,181)"/><path d=" M 247.257 858.28 L 247.257 840.051 L 276.289 840.051 L 276.289 858.28 L 247.257 858.28 Z " fill="rgb(63,140,181)"/>
<path d=" M 364.735 827.898 L 343.13 806.293 Q 354.27 793.127 361.191 775.742 Q 368.111 758.356 368.111 737.426 Q 368.111 718.859 361.36 700.798 Q 354.608 682.738 340.092 667.546 L 362.71 645.266 Q 379.251 662.483 389.041 685.945 Q 398.831 709.407 398.831 737.426 Q 398.831 764.095 389.885 786.713 Q 380.939 809.331 364.735 827.898 Z " fill="rgb(63,140,181)" fill-opacity="0.5"/>
<path d=" M 158.473 827.898 Q 142.269 809.331 133.323 786.375 Q 124.377 763.42 124.377 737.426 Q 124.377 683.075 161.342 643.409 Q 198.307 603.743 254.008 600.705 Q 257.047 600.705 260.254 600.874 Q 263.461 601.043 265.486 601.38 L 238.817 574.711 L 255.021 558.17 L 316.461 619.61 L 255.021 681.387 L 238.817 665.183 L 270.887 633.113 Q 266.499 632.438 261.942 632.1 Q 257.384 631.763 254.684 631.763 Q 211.811 634.126 183.622 665.183 Q 155.434 696.241 155.434 737.426 Q 155.434 753.63 160.836 772.366 Q 166.237 791.102 180.415 805.955 L 158.473 827.898 Z " fill="rgb(63,140,181)" fill-opacity="0.5"/>
</g>
</svg>